<!-- bar 1: Cm7 5/4{ 1/5:16 1/7 1/8 1/10 1/12 } r:4 r r -->
<!-- 4.0000 beats -->
<svg width="760" height="238.35" viewBox="0 0 760 238.35" aria-hidden="true">
  <line x1="0" y1="147.5" x2="760" y2="147.5" stroke="#4d4d4d" stroke-width="1.7"></line>
  <line x1="0" y1="136" x2="760" y2="136" stroke="#4d4d4d" stroke-width="1.7"></line>
  <line x1="0" y1="124.5" x2="760" y2="124.5" stroke="#4d4d4d" stroke-width="1.7"></line>
  <line x1="0" y1="113" x2="760" y2="113" stroke="#4d4d4d" stroke-width="1.7"></line>
  <line x1="0" y1="101.5" x2="760" y2="101.5" stroke="#4d4d4d" stroke-width="1.7"></line>
  <line x1="4.583" y1="90" x2="29.417" y2="90" stroke="#8a8a8a" stroke-width="1.4"></line>
  <ellipse cx="17" cy="90" rx="6.417" ry="4.553999999999999" fill="#9b7ce6" stroke="none" stroke-width="1.8"></ellipse>
  <line x1="10.583" y1="90" x2="10.583" y2="129.1" stroke="#dcdcdc" stroke-width="1.4"></line>
  <line x1="41.091300000000004" y1="90" x2="65.92530000000001" y2="90" stroke="#8a8a8a" stroke-width="1.4"></line>
  <ellipse cx="53.508300000000006" cy="84.25" rx="6.417" ry="4.553999999999999" fill="#edbde6" stroke="none" stroke-width="1.8"></ellipse>
  <line x1="47.091300000000004" y1="84.25" x2="47.091300000000004" y2="123.35" stroke="#dcdcdc" stroke-width="1.4"></line>
  <line x1="77.59960000000001" y1="90" x2="102.43360000000001" y2="90" stroke="#8a8a8a" stroke-width="1.4"></line>
  <line x1="77.59960000000001" y1="78.5" x2="102.43360000000001" y2="78.5" stroke="#8a8a8a" stroke-width="1.4"></line>
  <ellipse cx="90.01660000000001" cy="78.5" rx="6.417" ry="4.553999999999999" fill="#e57672" stroke="none" stroke-width="1.8"></ellipse>
  <line x1="83.59960000000001" y1="78.5" x2="83.59960000000001" y2="117.6" stroke="#dcdcdc" stroke-width="1.4"></line>
  <line x1="114.10790000000003" y1="90" x2="138.94190000000003" y2="90" stroke="#8a8a8a" stroke-width="1.4"></line>
  <line x1="114.10790000000003" y1="78.5" x2="138.94190000000003" y2="78.5" stroke="#8a8a8a" stroke-width="1.4"></line>
  <ellipse cx="126.52490000000003" cy="72.75" rx="6.417" ry="4.553999999999999" fill="#e6a45c" stroke="none" stroke-width="1.8"></ellipse>
  <line x1="120.10790000000003" y1="72.75" x2="120.10790000000003" y2="111.85" stroke="#dcdcdc" stroke-width="1.4"></line>
  <line x1="150.61620000000002" y1="90" x2="175.45020000000002" y2="90" stroke="#8a8a8a" stroke-width="1.4"></line>
  <line x1="150.61620000000002" y1="78.5" x2="175.45020000000002" y2="78.5" stroke="#8a8a8a" stroke-width="1.4"></line>
  <line x1="150.61620000000002" y1="67" x2="175.45020000000002" y2="67" stroke="#8a8a8a" stroke-width="1.4"></line>
  <ellipse cx="163.03320000000002" cy="67" rx="6.417" ry="4.553999999999999" fill="#9cc267" stroke="none" stroke-width="1.8"></ellipse>
  <line x1="156.61620000000002" y1="67" x2="156.61620000000002" y2="106.1" stroke="#dcdcdc" stroke-width="1.4"></line>
  <line x1="10.583" y1="129.1" x2="10.583" y2="129.1" stroke="#dcdcdc" stroke-width="1.4"></line>
  <line x1="47.091300000000004" y1="123.35" x2="47.091300000000004" y2="129.1" stroke="#dcdcdc" stroke-width="1.4"></line>
  <line x1="83.59960000000001" y1="117.6" x2="83.59960000000001" y2="129.1" stroke="#dcdcdc" stroke-width="1.4"></line>
  <line x1="120.10790000000003" y1="111.85" x2="120.10790000000003" y2="129.1" stroke="#dcdcdc" stroke-width="1.4"></line>
  <line x1="156.61620000000002" y1="106.1" x2="156.61620000000002" y2="129.1" stroke="#dcdcdc" stroke-width="1.4"></line>
  <line x1="10.583" y1="129.1" x2="156.61620000000002" y2="129.1" stroke="#dcdcdc" stroke-width="3.91"></line>
  <line x1="10.583" y1="120.82" x2="156.61620000000002" y2="120.82" stroke="#dcdcdc" stroke-width="3.91"></line>
  <path d="M196.09150000000002 111.85 l 5.75 8.049999999999999 l -5.75 5.75 l 6.8999999999999995 10.35" fill="none" stroke="#c8c8c8" stroke-width="2.76"></path>
  <path d="M378.63300000000004 111.85 l 5.75 8.049999999999999 l -5.75 5.75 l 6.8999999999999995 10.35" fill="none" stroke="#c8c8c8" stroke-width="2.76"></path>
  <path d="M561.1745 111.85 l 5.75 8.049999999999999 l -5.75 5.75 l 6.8999999999999995 10.35" fill="none" stroke="#c8c8c8" stroke-width="2.76"></path>
  <text x="90.01660000000001" y="156.66" fill="#dcdcdc" font-size="9" text-anchor="middle" font-style="italic" font-family="-apple-system, BlinkMacSystemFont, sans-serif">5</text>
  <rect class="staff-slot" x="0" y="0" width="760" height="238.35" fill="transparent" data-slot="0"></rect>
  <rect class="staff-caret" x="4" y="0" width="26" height="238.35" rx="4" fill="none" pointer-events="none" data-caret="0"></rect>
  <rect class="staff-hit" x="4" y="0" width="26" height="238.35" rx="4" fill="transparent" data-chord="0" data-note="0"></rect>
  <rect class="staff-hit" x="40.508300000000006" y="0" width="26" height="238.35" rx="4" fill="transparent" data-chord="0" data-note="1"></rect>
  <rect class="staff-hit" x="77.01660000000001" y="0" width="26" height="238.35" rx="4" fill="transparent" data-chord="0" data-note="2"></rect>
  <rect class="staff-hit" x="113.52490000000003" y="0" width="26" height="238.35" rx="4" fill="transparent" data-chord="0" data-note="3"></rect>
  <rect class="staff-hit" x="150.03320000000002" y="0" width="26" height="238.35" rx="4" fill="transparent" data-chord="0" data-note="4"></rect>
  <rect class="staff-hit" x="186.5415" y="0" width="26" height="238.35" rx="4" fill="transparent" data-chord="0" data-note="5"></rect>
  <rect class="staff-hit" x="369.083" y="0" width="26" height="238.35" rx="4" fill="transparent" data-chord="0" data-note="6"></rect>
  <rect class="staff-hit" x="551.6245" y="0" width="26" height="238.35" rx="4" fill="transparent" data-chord="0" data-note="7"></rect>
  <text x="10.583" y="46.646" class="staff-name" data-chord="0" data-note="" data-name="Cm7" fill="#ddd" font-size="16" text-anchor="start" font-family="-apple-system, BlinkMacSystemFont, sans-serif" font-weight="600">Cm7</text>
</svg>
<svg width="760" height="96.375" viewBox="0 0 760 96.375" aria-hidden="true">
  <line x1="0" y1="9.200000000000001" x2="760" y2="9.200000000000001" stroke="#4d4d4d" stroke-width="1.7"></line>
  <line x1="0" y1="20.700000000000003" x2="760" y2="20.700000000000003" stroke="#4d4d4d" stroke-width="1.7"></line>
  <line x1="0" y1="32.2" x2="760" y2="32.2" stroke="#4d4d4d" stroke-width="1.7"></line>
  <line x1="0" y1="43.7" x2="760" y2="43.7" stroke="#4d4d4d" stroke-width="1.7"></line>
  <line x1="0" y1="55.2" x2="760" y2="55.2" stroke="#4d4d4d" stroke-width="1.7"></line>
  <line x1="0" y1="66.7" x2="760" y2="66.7" stroke="#4d4d4d" stroke-width="1.7"></line>
  <rect x="8.20825" y="3.7950000000000017" width="17.5835" height="10.809999999999999" fill="#000"></rect>
  <text x="17" y="9.200000000000001" fill="#9b7ce6" font-size="12.65" text-anchor="middle" dominant-baseline="central" font-weight="600" font-family="-apple-system, BlinkMacSystemFont, sans-serif">5</text>
  <rect x="44.716550000000005" y="3.7950000000000017" width="17.5835" height="10.809999999999999" fill="#000"></rect>
  <text x="53.508300000000006" y="9.200000000000001" fill="#edbde6" font-size="12.65" text-anchor="middle" dominant-baseline="central" font-weight="600" font-family="-apple-system, BlinkMacSystemFont, sans-serif">7</text>
  <rect x="81.22485" y="3.7950000000000017" width="17.5835" height="10.809999999999999" fill="#000"></rect>
  <text x="90.01660000000001" y="9.200000000000001" fill="#e57672" font-size="12.65" text-anchor="middle" dominant-baseline="central" font-weight="600" font-family="-apple-system, BlinkMacSystemFont, sans-serif">8</text>
  <rect x="117.73315000000002" y="3.7950000000000017" width="17.5835" height="10.809999999999999" fill="#000"></rect>
  <text x="126.52490000000003" y="9.200000000000001" fill="#e6a45c" font-size="12.65" text-anchor="middle" dominant-baseline="central" font-weight="600" font-family="-apple-system, BlinkMacSystemFont, sans-serif">10</text>
  <rect x="154.24145000000001" y="3.7950000000000017" width="17.5835" height="10.809999999999999" fill="#000"></rect>
  <text x="163.03320000000002" y="9.200000000000001" fill="#9cc267" font-size="12.65" text-anchor="middle" dominant-baseline="central" font-weight="600" font-family="-apple-system, BlinkMacSystemFont, sans-serif">12</text>
  <circle class="staff-label-dot" cx="17" cy="85.85" r="8.8" fill="#9b7ce6"></circle>
  <text x="17" y="90.46499999999999" fill="#ffffff" font-size="13" text-anchor="middle" font-weight="600" font-family="-apple-system, BlinkMacSystemFont, sans-serif">6</text>
  <circle class="staff-label-dot" cx="53.508300000000006" cy="85.85" r="8.8" fill="#edbde6"></circle>
  <text x="53.508300000000006" y="90.11" fill="#ffffff" font-size="12" text-anchor="middle" font-weight="600" font-family="-apple-system, BlinkMacSystemFont, sans-serif">Δ7</text>
  <circle class="staff-label-dot" cx="90.01660000000001" cy="85.85" r="8.8" fill="#e57672"></circle>
  <text x="90.01660000000001" y="90.46499999999999" fill="#ffffff" font-size="13" text-anchor="middle" font-weight="600" font-family="-apple-system, BlinkMacSystemFont, sans-serif">R</text>
  <circle class="staff-label-dot" cx="126.52490000000003" cy="85.85" r="8.8" fill="#e6a45c"></circle>
  <text x="126.52490000000003" y="90.46499999999999" fill="#ffffff" font-size="13" text-anchor="middle" font-weight="600" font-family="-apple-system, BlinkMacSystemFont, sans-serif">9</text>
  <circle class="staff-label-dot" cx="163.03320000000002" cy="85.85" r="8.8" fill="#9cc267"></circle>
  <text x="163.03320000000002" y="90.46499999999999" fill="#ffffff" font-size="13" text-anchor="middle" font-weight="600" font-family="-apple-system, BlinkMacSystemFont, sans-serif">3</text>
  <rect class="staff-slot" x="0" y="0" width="760" height="96.375" fill="transparent" data-slot="0"></rect>
  <rect class="staff-caret" x="4" y="0" width="26" height="96.375" rx="4" fill="none" pointer-events="none" data-caret="0"></rect>
  <rect class="staff-hit" x="4" y="0" width="26" height="96.375" rx="4" fill="transparent" data-chord="0" data-note="0"></rect>
  <rect class="staff-hit" x="40.508300000000006" y="0" width="26" height="96.375" rx="4" fill="transparent" data-chord="0" data-note="1"></rect>
  <rect class="staff-hit" x="77.01660000000001" y="0" width="26" height="96.375" rx="4" fill="transparent" data-chord="0" data-note="2"></rect>
  <rect class="staff-hit" x="113.52490000000003" y="0" width="26" height="96.375" rx="4" fill="transparent" data-chord="0" data-note="3"></rect>
  <rect class="staff-hit" x="150.03320000000002" y="0" width="26" height="96.375" rx="4" fill="transparent" data-chord="0" data-note="4"></rect>
  <rect class="staff-hit" x="186.5415" y="0" width="26" height="96.375" rx="4" fill="transparent" data-chord="0" data-note="5"></rect>
  <rect class="staff-hit" x="369.083" y="0" width="26" height="96.375" rx="4" fill="transparent" data-chord="0" data-note="6"></rect>
  <rect class="staff-hit" x="551.6245" y="0" width="26" height="96.375" rx="4" fill="transparent" data-chord="0" data-note="7"></rect>
</svg>
