<!-- bar 1: Cm7 1/8:4 3/2{ 1/8:8 1/10 1/12 } 3/2{ 1/5 } -->
<!-- 2.3333 beats -->
<svg width="760" height="210" viewBox="0 0 760 210" aria-hidden="true">
  <line x1="0" y1="131" x2="760" y2="131" stroke="#4d4d4d" stroke-width="1"></line>
  <line x1="0" y1="121" x2="760" y2="121" stroke="#4d4d4d" stroke-width="1"></line>
  <line x1="0" y1="111" x2="760" y2="111" stroke="#4d4d4d" stroke-width="1"></line>
  <line x1="0" y1="101" x2="760" y2="101" stroke="#4d4d4d" stroke-width="1"></line>
  <line x1="0" y1="91" x2="760" y2="91" stroke="#4d4d4d" stroke-width="1"></line>
  <line x1="4.800000000000001" y1="81" x2="29.2" y2="81" stroke="#8a8a8a" stroke-width="1.4"></line>
  <line x1="4.800000000000001" y1="71" x2="29.2" y2="71" stroke="#8a8a8a" stroke-width="1.4"></line>
  <ellipse cx="17" cy="71" rx="6.2" ry="4.4" fill="#e57672" stroke="none" stroke-width="1.8"></ellipse>
  <line x1="10.8" y1="71" x2="10.8" y2="105" stroke="#dcdcdc" stroke-width="1.4"></line>
  <line x1="194.8" y1="81" x2="219.2" y2="81" stroke="#8a8a8a" stroke-width="1.4"></line>
  <line x1="194.8" y1="71" x2="219.2" y2="71" stroke="#8a8a8a" stroke-width="1.4"></line>
  <ellipse cx="207" cy="71" rx="6.2" ry="4.4" fill="#e57672" stroke="none" stroke-width="1.8"></ellipse>
  <line x1="200.8" y1="71" x2="200.8" y2="105" stroke="#dcdcdc" stroke-width="1.4"></line>
  <line x1="258.1333333333333" y1="81" x2="282.5333333333333" y2="81" stroke="#8a8a8a" stroke-width="1.4"></line>
  <line x1="258.1333333333333" y1="71" x2="282.5333333333333" y2="71" stroke="#8a8a8a" stroke-width="1.4"></line>
  <ellipse cx="270.3333333333333" cy="66" rx="6.2" ry="4.4" fill="#e6a45c" stroke="none" stroke-width="1.8"></ellipse>
  <line x1="264.1333333333333" y1="66" x2="264.1333333333333" y2="100" stroke="#dcdcdc" stroke-width="1.4"></line>
  <line x1="321.46666666666664" y1="81" x2="345.8666666666666" y2="81" stroke="#8a8a8a" stroke-width="1.4"></line>
  <line x1="321.46666666666664" y1="71" x2="345.8666666666666" y2="71" stroke="#8a8a8a" stroke-width="1.4"></line>
  <line x1="321.46666666666664" y1="61" x2="345.8666666666666" y2="61" stroke="#8a8a8a" stroke-width="1.4"></line>
  <ellipse cx="333.66666666666663" cy="61" rx="6.2" ry="4.4" fill="#9cc267" stroke="none" stroke-width="1.8"></ellipse>
  <line x1="327.46666666666664" y1="61" x2="327.46666666666664" y2="95" stroke="#dcdcdc" stroke-width="1.4"></line>
  <line x1="200.8" y1="105" x2="200.8" y2="105" stroke="#dcdcdc" stroke-width="1.4"></line>
  <line x1="264.1333333333333" y1="100" x2="264.1333333333333" y2="105" stroke="#dcdcdc" stroke-width="1.4"></line>
  <line x1="327.46666666666664" y1="95" x2="327.46666666666664" y2="105" stroke="#dcdcdc" stroke-width="1.4"></line>
  <line x1="200.8" y1="105" x2="327.46666666666664" y2="105" stroke="#dcdcdc" stroke-width="3.4000000000000004"></line>
  <line x1="384.79999999999995" y1="81" x2="409.19999999999993" y2="81" stroke="#8a8a8a" stroke-width="1.4"></line>
  <ellipse cx="396.99999999999994" cy="81" rx="6.2" ry="4.4" fill="#9b7ce6" stroke="none" stroke-width="1.8"></ellipse>
  <line x1="390.79999999999995" y1="81" x2="390.79999999999995" y2="115" stroke="#dcdcdc" stroke-width="1.4"></line>
  <line x1="390.79999999999995" y1="115" x2="390.79999999999995" y2="115" stroke="#dcdcdc" stroke-width="1.4"></line>
  <path d="M390.79999999999995 115 q 9 -5 7 -15" fill="none" stroke="#dcdcdc" stroke-width="2.5500000000000003"></path>
  <text x="270.3333333333333" y="123.2" fill="#dcdcdc" font-size="9" text-anchor="middle" font-style="italic" font-family="-apple-system, BlinkMacSystemFont, sans-serif">3</text>
  <text x="396.99999999999994" y="130" fill="#dcdcdc" font-size="9" text-anchor="middle" font-style="italic" font-family="-apple-system, BlinkMacSystemFont, sans-serif">3</text>
  <rect class="staff-slot" x="0" y="0" width="760" height="210" fill="transparent" data-slot="0"></rect>
  <rect class="staff-caret" x="4" y="0" width="26" height="210" rx="4" fill="none" pointer-events="none" data-caret="0"></rect>
  <rect class="staff-hit" x="4" y="0" width="26" height="210" rx="4" fill="transparent" data-chord="0" data-note="0"></rect>
  <rect class="staff-hit" x="194" y="0" width="26" height="210" rx="4" fill="transparent" data-chord="0" data-note="1"></rect>
  <rect class="staff-hit" x="257.3333333333333" y="0" width="26" height="210" rx="4" fill="transparent" data-chord="0" data-note="2"></rect>
  <rect class="staff-hit" x="320.66666666666663" y="0" width="26" height="210" rx="4" fill="transparent" data-chord="0" data-note="3"></rect>
  <rect class="staff-hit" x="383.99999999999994" y="0" width="26" height="210" rx="4" fill="transparent" data-chord="0" data-note="4"></rect>
  <text x="10.8" y="42.6" class="staff-name" data-chord="0" data-note="" data-name="Cm7" fill="#ddd" font-size="16" text-anchor="start" font-family="-apple-system, BlinkMacSystemFont, sans-serif" font-weight="600">Cm7</text>
</svg>
<svg width="760" height="83.6" viewBox="0 0 760 83.6" aria-hidden="true">
  <line x1="0" y1="8" x2="760" y2="8" stroke="#4d4d4d" stroke-width="1"></line>
  <line x1="0" y1="17.5" x2="760" y2="17.5" stroke="#4d4d4d" stroke-width="1"></line>
  <line x1="0" y1="27" x2="760" y2="27" stroke="#4d4d4d" stroke-width="1"></line>
  <line x1="0" y1="36.5" x2="760" y2="36.5" stroke="#4d4d4d" stroke-width="1"></line>
  <line x1="0" y1="46" x2="760" y2="46" stroke="#4d4d4d" stroke-width="1"></line>
  <line x1="0" y1="55.5" x2="760" y2="55.5" stroke="#4d4d4d" stroke-width="1"></line>
  <rect x="9" y="2" width="16" height="12" fill="#000"></rect>
  <text x="17" y="8" fill="#e57672" font-size="11.5" text-anchor="middle" dominant-baseline="central" font-weight="600" font-family="-apple-system, BlinkMacSystemFont, sans-serif">8</text>
  <rect x="199" y="2" width="16" height="12" fill="#000"></rect>
  <text x="207" y="8" fill="#e57672" font-size="11.5" text-anchor="middle" dominant-baseline="central" font-weight="600" font-family="-apple-system, BlinkMacSystemFont, sans-serif">8</text>
  <rect x="262.3333333333333" y="2" width="16" height="12" fill="#000"></rect>
  <text x="270.3333333333333" y="8" fill="#e6a45c" font-size="11.5" text-anchor="middle" dominant-baseline="central" font-weight="600" font-family="-apple-system, BlinkMacSystemFont, sans-serif">10</text>
  <rect x="325.66666666666663" y="2" width="16" height="12" fill="#000"></rect>
  <text x="333.66666666666663" y="8" fill="#9cc267" font-size="11.5" text-anchor="middle" dominant-baseline="central" font-weight="600" font-family="-apple-system, BlinkMacSystemFont, sans-serif">12</text>
  <rect x="388.99999999999994" y="2" width="16" height="12" fill="#000"></rect>
  <text x="396.99999999999994" y="8" fill="#9b7ce6" font-size="11.5" text-anchor="middle" dominant-baseline="central" font-weight="600" font-family="-apple-system, BlinkMacSystemFont, sans-serif">5</text>
  <circle class="staff-label-dot" cx="17" cy="73.3" r="8.8" fill="#e57672"></circle>
  <text x="17" y="77.91499999999999" fill="#ffffff" font-size="13" text-anchor="middle" font-weight="600" font-family="-apple-system, BlinkMacSystemFont, sans-serif">R</text>
  <circle class="staff-label-dot" cx="207" cy="73.3" r="8.8" fill="#e57672"></circle>
  <text x="207" y="77.91499999999999" fill="#ffffff" font-size="13" text-anchor="middle" font-weight="600" font-family="-apple-system, BlinkMacSystemFont, sans-serif">R</text>
  <circle class="staff-label-dot" cx="270.3333333333333" cy="73.3" r="8.8" fill="#e6a45c"></circle>
  <text x="270.3333333333333" y="77.91499999999999" fill="#ffffff" font-size="13" text-anchor="middle" font-weight="600" font-family="-apple-system, BlinkMacSystemFont, sans-serif">9</text>
  <circle class="staff-label-dot" cx="333.66666666666663" cy="73.3" r="8.8" fill="#9cc267"></circle>
  <text x="333.66666666666663" y="77.91499999999999" fill="#ffffff" font-size="13" text-anchor="middle" font-weight="600" font-family="-apple-system, BlinkMacSystemFont, sans-serif">3</text>
  <circle class="staff-label-dot" cx="396.99999999999994" cy="73.3" r="8.8" fill="#9b7ce6"></circle>
  <text x="396.99999999999994" y="77.91499999999999" fill="#ffffff" font-size="13" text-anchor="middle" font-weight="600" font-family="-apple-system, BlinkMacSystemFont, sans-serif">6</text>
  <rect class="staff-slot" x="0" y="0" width="760" height="83.6" fill="transparent" data-slot="0"></rect>
  <rect class="staff-caret" x="4" y="0" width="26" height="83.6" rx="4" fill="none" pointer-events="none" data-caret="0"></rect>
  <rect class="staff-hit" x="4" y="0" width="26" height="83.6" rx="4" fill="transparent" data-chord="0" data-note="0"></rect>
  <rect class="staff-hit" x="194" y="0" width="26" height="83.6" rx="4" fill="transparent" data-chord="0" data-note="1"></rect>
  <rect class="staff-hit" x="257.3333333333333" y="0" width="26" height="83.6" rx="4" fill="transparent" data-chord="0" data-note="2"></rect>
  <rect class="staff-hit" x="320.66666666666663" y="0" width="26" height="83.6" rx="4" fill="transparent" data-chord="0" data-note="3"></rect>
  <rect class="staff-hit" x="383.99999999999994" y="0" width="26" height="83.6" rx="4" fill="transparent" data-chord="0" data-note="4"></rect>
</svg>
